<?xml version="1.0" standalone="no"?><!DOCTYPE svg PUBLIC "-//W3C//DTD SVG 1.1//EN" "http://www.w3.org/Graphics/SVG/1.1/DTD/svg11.dtd"><svg t="1546943009033" class="icon" style="" viewBox="0 0 1024 1024" version="1.1" xmlns="http://www.w3.org/2000/svg" p-id="9312" xmlns:xlink="http://www.w3.org/1999/xlink" width="200" height="200"><defs><style type="text/css"></style></defs><path d="M718.845487 628.248607c-32.685423 0-65.370847 13.074783-84.986603 32.686447L418.130587 536.724101c0-6.534833 6.535857-19.60757 6.535857-26.146497 0-13.072737 0-19.612687-6.535857-26.148543l222.264153-124.208906c19.611663 19.612687 52.297087 32.686447 84.987626 32.686447 65.369823 0 117.66691-52.299133 117.66691-117.66998 0-65.375963-52.297087-117.672026-117.66691-117.672026-65.375963 0-124.208906 45.760207-124.208906 111.1331 0 13.072737 0 19.612687 6.535857 26.148543l-222.264153 130.747833c-26.152637-19.61371-52.300156-32.68747-84.98558-32.68747-65.370847 0-117.67305 52.29811-117.67305 117.66998 0 65.372893 52.302203 117.66998 117.67305 117.66998 32.685423 0 65.370847-13.071713 84.98558-32.685423l222.264153 124.208906c0 6.537903-6.535857 19.612687-6.535857 26.148543 0 65.375963 52.300156 117.67305 117.671003 117.67305s117.671003-52.297087 117.671003-117.67305C836.51649 680.546717 784.21531 628.248607 718.845487 628.248607L718.845487 628.248607z" p-id="9313"></path></svg>