<?xml version="1.0" standalone="no"?><!DOCTYPE svg PUBLIC "-//W3C//DTD SVG 1.1//EN" "http://www.w3.org/Graphics/SVG/1.1/DTD/svg11.dtd"><svg t="1567069322224" class="icon" viewBox="0 0 2560 1024" version="1.1" xmlns="http://www.w3.org/2000/svg" p-id="2101" xmlns:xlink="http://www.w3.org/1999/xlink" width="500" height="200"><defs><style type="text/css"></style></defs><path d="M2048 0H512C230.4 0 0 230.4 0 512s230.4 512 512 512h1536c281.6 0 512-230.4 512-512S2329.6 0 2048 0z m0 998.4H512C243.2 998.4 25.6 780.8 25.6 512S243.2 25.6 512 25.6h1536c268.8 0 486.4 217.6 486.4 486.4s-217.6 486.4-486.4 486.4z" p-id="2102" fill="#cdcdcd"></path><path d="M934.4 576h163.84v-202.24h-158.72v-43.52h202.24v-33.28H701.44v33.28h199.68v43.52h-156.16v202.24H896c-5.12 25.6-15.36 48.64-25.6 66.56-28.16-15.36-56.32-33.28-79.36-51.2l-28.16 20.48c25.6 20.48 53.76 40.96 81.92 56.32-33.28 23.04-84.48 38.4-156.16 43.52l15.36 33.28c81.92-10.24 140.8-28.16 176.64-58.88 76.8 35.84 166.4 53.76 268.8 58.88l10.24-35.84c-97.28-2.56-184.32-20.48-256-51.2 15.36-23.04 23.04-48.64 30.72-81.92z m5.12-171.52h122.88v53.76h-122.88v-53.76z m0 102.4v-17.92h122.88v53.76h-122.88v-35.84z m-35.84 0c0 12.8 0 25.6-2.56 35.84h-117.76v-53.76h120.32v17.92z m0-48.64h-120.32v-53.76h120.32v53.76zM1546.24 481.28l-30.72-17.92c-53.76 56.32-135.68 89.6-248.32 102.4l23.04 33.28c61.44-10.24 115.2-28.16 161.28-48.64h151.04c-33.28 46.08-76.8 79.36-133.12 104.96-17.92-23.04-35.84-43.52-56.32-64l-33.28 15.36c17.92 17.92 35.84 38.4 53.76 61.44-58.88 20.48-128 28.16-207.36 30.72l15.36 35.84c199.68-5.12 332.8-66.56 407.04-186.88v-28.16h-140.8c15.36-12.8 28.16-25.6 38.4-38.4zM1390.08 350.72h148.48c-28.16 40.96-69.12 74.24-122.88 94.72-15.36-20.48-33.28-38.4-51.2-56.32l-33.28 15.36c17.92 15.36 33.28 33.28 51.2 53.76-35.84 10.24-76.8 17.92-122.88 20.48l15.36 33.28c148.48-12.8 253.44-66.56 307.2-166.4v-28.16h-145.92c10.24-10.24 20.48-17.92 28.16-28.16l-33.28-17.92c-46.08 48.64-112.64 81.92-204.8 99.84l20.48 33.28c56.32-12.8 104.96-30.72 143.36-53.76zM1843.2 296.96l225.28 215.04-225.28 215.04 15.36 15.36 240.64-230.4-240.64-230.4z" p-id="2103" fill="#cdcdcd"></path></svg>