<?xml version="1.0" standalone="no"?><!DOCTYPE svg PUBLIC "-//W3C//DTD SVG 1.1//EN" "http://www.w3.org/Graphics/SVG/1.1/DTD/svg11.dtd"><svg t="1546943061850" class="icon" style="" viewBox="0 0 1024 1024" version="1.1" xmlns="http://www.w3.org/2000/svg" p-id="11976" xmlns:xlink="http://www.w3.org/1999/xlink" width="200" height="200"><defs><style type="text/css"></style></defs><path d="M227.0057 251.495415c13.830979 0 25.124164-11.293185 25.124164-25.124163V116.484758L117.119207 251.495415h109.886493zM76.133829 326.994796v528.114993c0 13.830979 11.293185 25.124164 25.124164 25.124164h519.740272v75.49938H101.257993c-26.64684 0-52.278563-10.531846-71.185131-29.438414C11.293185 907.388352 0.634449 881.756629 0.634449 855.109789v-593.843866L261.900372 0h426.095663c26.64684 0 52.278563 10.531846 71.18513 29.438414 18.906568 18.906568 29.438414 44.4114 29.438414 71.18513v184.370756h-75.499381V100.623544c0-13.957869-11.293185-25.124164-25.124163-25.124164h-360.366791v150.871872c0 26.64684-10.531846 52.278563-29.438414 71.18513-18.906568 18.906568-44.4114 29.438414-71.18513 29.438414H76.133829z" p-id="11977"></path><path d="M713.247088 335.369517H788.619579v117.372986h-75.499381v-117.372986z m-192.872367 477.739777l255.048327-293.369021L1023.365551 813.109294H855.617348V1022.731103h-167.494424V813.109294H520.374721z m234.745973-66.99777v209.621809H788.619579V746.111524h90.218587L774.66171 622.901611 667.566791 746.111524h87.553903zM168.255762 377.243123h452.742503v75.49938H168.255762v-75.49938z m335.369517 125.747707h117.372986v75.499381h-117.372986v-75.499381z m-335.369517 0h284.9943v75.499381H168.255762v-75.499381z m209.621809-251.495415h243.120694v75.499381H377.877571v-75.499381z" p-id="11978"></path></svg>