<?xml version="1.0" standalone="no"?><!DOCTYPE svg PUBLIC "-//W3C//DTD SVG 1.1//EN" "http://www.w3.org/Graphics/SVG/1.1/DTD/svg11.dtd"><svg t="1548743313668" class="icon" style="" viewBox="0 0 1024 1024" version="1.1" xmlns="http://www.w3.org/2000/svg" p-id="8762" xmlns:xlink="http://www.w3.org/1999/xlink" width="200" height="200"><defs><style type="text/css"></style></defs><path d="M334.170437 207.359308a25.242156 25.242156 0 0 0 17.774786 7.321154h572.897518c7.321154 0 13.589548-3.144518 18.815504-7.321154 5.227676-5.227676 7.321154-11.504671 7.321155-18.815504 0-7.321154-2.093479-13.59987-7.321155-18.827546-5.225955-5.227676-11.49607-7.309113-18.815504-7.309112H351.943502c-7.319434 0-13.594709 2.081437-17.774785 7.309112-5.227676 5.227676-8.361873 11.506391-8.361873 18.827546 0.00172 7.310833 3.135917 13.589548 8.363593 18.815504zM344.624068 346.402751c0-7.310833-3.134197-13.587828-7.321154-18.815504-5.227676-5.227676-11.49607-8.360153-18.815504-8.360153-7.321154 0-13.589548 3.134197-18.815504 7.310833l-93.048842 92.006404-74.221297-66.910464c-5.227676-4.186957-11.501231-7.310833-18.820665-6.268394-7.314273 0-13.587828 3.134197-17.769625 8.360152-5.227676 5.227676-8.367033 11.504671-7.319434 18.815504 1.045879 7.319434 3.134197 13.598149 9.407752 17.774786l92.001243 83.63593c4.181796 4.176636 10.455351 6.278715 17.769625 6.278715 6.273555 0 12.54711-2.10208 17.774785-7.329755l110.816748-108.719828c5.227676-4.180076 8.361873-10.458792 8.361872-17.778226zM344.624068 106.992751c0-7.310833-3.134197-13.579227-7.321154-18.806903-5.227676-5.227676-11.49607-8.370474-18.815504-8.370473-7.321154 0-13.589548 3.144518-18.815504 7.319434l-93.048842 93.038521-74.221297-67.954623c-5.227676-4.176636-11.501231-7.310833-18.820665-6.268394-7.314273 0-13.587828 3.144518-17.769625 8.370473-5.227676 5.227676-8.367033 11.49779-7.319434 18.806903 1.045879 7.329755 3.134197 13.59987 9.407752 17.785107l92.001243 83.63593c4.181796 4.174916 10.455351 6.268394 17.769625 6.268394 6.273555 0 12.54711-2.093479 17.774785-7.319434l110.816748-108.719828c5.227676-4.186957 8.361873-10.457072 8.361872-17.785107zM334.170437 430.036961c4.180076 5.227676 10.453631 7.319434 17.774786 7.319434h572.897518c7.321154 0 13.589548-2.091758 18.815504-7.319434 5.227676-5.227676 7.321154-11.49607 7.321155-18.815504 0-7.319434-2.093479-13.587828-7.321155-17.774786-5.225955-5.227676-11.49607-8.361873-18.815504-8.361872H351.943502c-7.319434 0-13.594709 3.134197-17.774785 8.361872-5.227676 4.185237-8.361873 10.455351-8.361873 17.774786 0.00172 7.319434 3.135917 13.589548 8.363593 18.815504zM201.395388 548.180023h-1.040719c-26.136658 0-49.137399 9.404312-66.912184 28.216375-18.815504 17.776506-28.223256 39.736528-28.223256 66.913904 0 26.133218 9.407752 49.127078 28.223256 66.910464 17.774785 18.806903 40.777246 28.218095 66.912184 28.218096 26.134938 0 49.132238-9.412913 67.952903-28.218096 17.769625-17.785107 27.177377-40.777246 27.177377-66.910464v-1.040718c0-26.136658-9.407752-48.09668-27.177377-65.873186-18.820665-18.812064-41.816245-28.216375-66.912184-28.216375z m41.817965 95.131999c0 11.49607-4.181796 21.949701-12.541949 30.321895-8.367033 8.349831-18.820665 12.536789-30.316735 12.536789-11.501231 0-21.954862-4.188677-30.321895-12.536789-8.360153-8.372194-12.541949-18.825825-12.541949-30.321895 0-12.54711 4.180076-21.951421 12.541949-30.321895 8.367033-8.361873 17.774785-12.536789 30.321895-12.536788h1.040719c11.501231 0 20.908982 4.174916 29.276016 12.536788 8.360153 8.370474 12.541949 17.774785 12.541949 29.279457v1.042438zM201.395388 784.445504h-1.040719c-26.136658 0-49.137399 9.412913-66.912184 28.218095-18.815504 17.786827-28.223256 39.736528-28.223256 66.910464 0 26.136658 9.407752 49.139119 28.223256 66.913905 17.774785 18.815504 40.777246 28.216375 66.912184 28.216375 26.134938 0 49.132238-9.400871 67.952903-28.216375 17.769625-17.774785 27.177377-40.777246 27.177377-66.913905v-1.038998c0-26.134938-9.407752-48.084639-27.177377-65.871466-18.820665-18.805183-41.816245-28.218095-66.912184-28.218095z m41.817965 95.13028c0 11.49779-4.181796 21.951421-12.541949 30.323615-8.367033 8.360153-18.820665 12.535068-30.316735 12.535068-11.501231 0-21.954862-4.174916-30.321895-12.535068-8.360153-8.372194-12.541949-18.825825-12.541949-30.323615 0-12.535068 4.180076-21.949701 12.541949-30.321896 8.367033-8.349831 17.774785-12.536789 30.321895-12.536788h1.040719c11.501231 0 20.908982 4.188677 29.276016 12.536788 8.360153 8.372194 12.541949 17.786827 12.541949 29.281177v1.040719zM943.658245 867.040715c-5.225955-5.227676-11.49607-7.331475-18.815504-7.331475H351.943502c-7.319434 0-13.594709 2.1038-17.774785 7.331475-5.227676 5.227676-8.361873 11.49607-8.361873 18.805183 0 7.331475 3.134197 13.598149 8.361873 18.825825a25.19055 25.19055 0 0 0 17.774785 7.309113h572.897519c7.321154 0 13.589548-3.122156 18.815504-7.309113 5.227676-5.227676 7.321154-11.49607 7.321154-18.825825 0.00172-7.310833-2.090038-13.577507-7.319434-18.805183zM943.658245 639.125065c-5.225955-5.225955-11.49607-8.358432-18.815504-8.358432H351.943502c-7.319434 0-13.594709 3.132477-17.774785 8.358432-5.227676 4.188677-8.361873 10.455351-8.361873 17.774786 0 7.321154 3.134197 13.587828 8.361873 18.815504 4.180076 5.227676 10.453631 7.321154 17.774785 7.321154h572.897519c7.321154 0 13.589548-2.093479 18.815504-7.321154 5.227676-5.227676 7.321154-11.49607 7.321154-18.815504 0.00172-7.319434-2.090038-13.587828-7.319434-17.774786z" fill="" p-id="8763"></path></svg>